<svg width="19" height="15" viewBox="0 0 19 15" fill="none" xmlns="http://www.w3.org/2000/svg">
<path fill-rule="evenodd" clip-rule="evenodd" d="M8.90958 4.42053L8.86995 3.80223C8.75115 2.19979 9.79388 0.736123 11.4438 0.168375C12.051 -0.0335301 13.0805 -0.0587684 13.7537 0.117899C14.0177 0.193614 14.5193 0.445921 14.8756 0.673065L15.5224 1.08946L16.2352 0.87497C16.6312 0.761361 17.1592 0.572112 17.3967 0.445921C17.6211 0.332386 17.8191 0.269254 17.8191 0.307148C17.8191 0.521636 17.3307 1.25347 16.9216 1.65721C16.3672 2.22503 16.5256 2.2755 17.6475 1.89693C18.3207 1.68244 18.3338 1.68244 18.2019 1.92217C18.1226 2.04836 17.7135 2.48999 17.2779 2.89373C16.5387 3.58774 16.4992 3.66346 16.4992 4.24386C16.4992 5.1397 16.0504 7.00711 15.6016 8.02914C14.77 9.94702 12.9881 11.928 11.2062 12.9248C8.69839 14.3254 5.35891 14.6786 2.54748 13.8585C1.61034 13.5809 0 12.8743 0 12.7482C0 12.7103 0.488346 12.6598 1.08236 12.6472C2.32308 12.622 3.5638 12.2939 4.61975 11.7135L5.33257 11.3097L4.51415 11.0448C3.35261 10.6662 2.30987 9.79559 2.04593 8.97546C1.96667 8.7105 1.99309 8.69784 2.73225 8.69784L3.49783 8.68526L2.85105 8.39506C2.08547 8.02914 1.38594 7.41084 1.04274 6.77996C0.79192 6.32575 0.475215 5.17752 0.5676 5.08923C0.59394 5.05141 0.871175 5.12705 1.18796 5.228C2.09868 5.54344 2.21749 5.46773 1.68951 4.9378C0.699535 3.9789 0.39596 2.55305 0.871175 1.20299L1.09557 0.59735L1.96667 1.41748C3.74865 3.07039 5.84733 4.05461 8.24959 4.34481L8.90958 4.42053Z" fill="#F7FBFD"/>
</svg>
